name analog
datacolumns 19
datarows 46
range 0.1515 0.17400000000000002
endheader
time	ground_force_vx	ground_force_vy	ground_force_vz	ground_force_px	ground_force_py	ground_force_pz	l_ground_force_vx	l_ground_force_vy	l_ground_force_vz	l_ground_force_px	l_ground_force_py	l_ground_force_pz	ground_torque_x	ground_torque_y	ground_torque_z	l_ground_torque_x	l_ground_torque_y	l_ground_torque_z
0.1515	-0.0	-0.0	-0.0	-0.0	-0.0	-0.0	3.655425310134888	6.197080612182617	-859.931640625	-0.0	-0.0	-0.0	-0.0	-0.0	-0.0	248028.546875	-10350.900390625	-1150.2783203125
0.152	-0.0	-0.0	-0.0	-0.0	-0.0	-0.0	4.261849403381348	8.110733985900879	-863.0734252929688	-0.0	-0.0	-0.0	-0.0	-0.0	-0.0	249770.609375	-10881.3603515625	-928.2200317382812
0.1525	-0.0	-0.0	-0.0	-0.0	-0.0	-0.0	4.154244899749756	8.567203521728516	-866.868896484375	-0.0	-0.0	-0.0	-0.0	-0.0	-0.0	250815.53125	-11288.46484375	-1065.3099365234375
0.153	-0.0	-0.0	-0.0	-0.0	-0.0	-0.0	3.5637614727020264	9.869134902954102	-868.6590576171875	-0.0	-0.0	-0.0	-0.0	-0.0	-0.0	251858.65625	-11057.3076171875	-1093.8096923828125
0.1535	-0.0	-0.0	-0.0	-0.0	-0.0	-0.0	3.548431396484375	10.153103828430176	-870.1011962890625	-0.0	-0.0	-0.0	-0.0	-0.0	-0.0	252693.40625	-11444.7900390625	-1126.05078125
0.154	-0.0	-0.0	-0.0	-0.0	-0.0	-0.0	2.8505938053131104	10.790974617004396	-874.8807373046875	-0.0	-0.0	-0.0	-0.0	-0.0	-0.0	253789.5625	-11707.02734375	-1475.792236328125
0.1545	-0.0	-0.0	-0.0	-0.0	-0.0	-0.0	2.040348052978516	11.21286392211914	-878.0216674804688	-0.0	-0.0	-0.0	-0.0	-0.0	-0.0	254569.53125	-11650.2666015625	-1713.5345458984375
0.155	-0.0	-0.0	-0.0	-0.0	-0.0	-0.0	1.322495460510254	10.879828453063965	-881.21044921875	-0.0	-0.0	-0.0	-0.0	-0.0	-0.0	255772.53125	-11689.2001953125	-1718.1756591796875
0.1555	-0.0	-0.0	-0.0	-0.0	-0.0	-0.0	0.7138115167617798	10.434280395507812	-884.3035888671875	-0.0	-0.0	-0.0	-0.0	-0.0	-0.0	256657.53125	-12345.763671875	-1892.5816650390625
0.156	-0.0	-0.0	-0.0	-0.0	-0.0	-0.0	0.9800188541412354	10.144448280334473	-887.7933959960938	-0.0	-0.0	-0.0	-0.0	-0.0	-0.0	257729.125	-12013.9296875	-1864.1563720703125
0.1565	-0.0	-0.0	-0.0	-0.0	-0.0	-0.0	0.8871078491210938	10.31667709350586	-889.9706420898438	-0.0	-0.0	-0.0	-0.0	-0.0	-0.0	258642.15625	-12641.9208984375	-1746.927001953125
0.157	-0.0	-0.0	-0.0	-0.0	-0.0	-0.0	1.060228943824768	9.904873847961426	-893.5128784179688	-0.0	-0.0	-0.0	-0.0	-0.0	-0.0	259465.96875	-12841.6044921875	-1689.018310546875
0.1575	-0.0	-0.0	-0.0	-0.0	-0.0	-0.0	1.3306617736816406	9.975994110107422	-897.2507934570312	-0.0	-0.0	-0.0	-0.0	-0.0	-0.0	260121.546875	-12624.2294921875	-1693.222412109375
0.158	-0.0	-0.0	-0.0	-0.0	-0.0	-0.0	1.9472204446792605	9.450420379638672	-896.6734619140625	-0.0	-0.0	-0.0	-0.0	-0.0	-0.0	260658.5625	-12971.5302734375	-1423.04248046875
0.1585	-0.0	-0.0	-0.0	-0.0	-0.0	-0.0	2.049299478530884	9.697561264038086	-900.3739624023438	-0.0	-0.0	-0.0	-0.0	-0.0	-0.0	260934.515625	-12863.08203125	-1421.449951171875
0.159	-0.0	-0.0	-0.0	-0.0	-0.0	-0.0	2.1950159072875977	9.817299842834473	-900.1487426757812	-0.0	-0.0	-0.0	-0.0	-0.0	-0.0	260739.84375	-13029.599609375	-1221.3011474609375
0.1595	-0.0	-0.0	-0.0	-0.0	-0.0	-0.0	2.633768081665039	9.887455940246582	-901.491455078125	-0.0	-0.0	-0.0	-0.0	-0.0	-0.0	260865.59375	-12705.1005859375	-1305.4403076171875
0.16	-0.0	-0.0	-0.0	-0.0	-0.0	-0.0	2.3718535900115967	9.887381553649902	-899.4512939453125	-0.0	-0.0	-0.0	-0.0	-0.0	-0.0	260151.890625	-12778.126953125	-1390.0115966796875
0.1605	-0.0	-0.0	-0.0	-0.0	-0.0	-0.0	1.8582005500793457	9.436305046081545	-895.629638671875	-0.0	-0.0	-0.0	-0.0	-0.0	-0.0	259628.59375	-12645.2646484375	-1421.73583984375
0.161	-0.0	-0.0	-0.0	-0.0	-0.0	-0.0	2.1481285095214844	8.948969841003418	-893.8468627929688	-0.0	-0.0	-0.0	-0.0	-0.0	-0.0	258730.046875	-12510.2421875	-1329.48681640625
0.1615	-0.0	-0.0	-0.0	-0.0	-0.0	-0.0	2.6516387462615967	8.335987091064453	-890.0255737304688	-0.0	-0.0	-0.0	-0.0	-0.0	-0.0	257752.953125	-12528.841796875	-1063.9022216796875
0.162	-0.0	-0.0	-0.0	-0.0	-0.0	-0.0	2.385422468185425	8.56234073638916	-886.883544921875	-0.0	-0.0	-0.0	-0.0	-0.0	-0.0	256054.296875	-12324.373046875	-943.74462890625
0.1625	-0.0	-0.0	-0.0	-0.0	-0.0	-0.0	2.197998046875	7.880314826965332	-881.6856079101562	-0.0	-0.0	-0.0	-0.0	-0.0	-0.0	254610.375	-12148.576171875	-968.7369995117188
0.163	-0.0	-0.0	-0.0	-0.0	-0.0	-0.0	2.025294303894043	7.933964252471924	-879.14404296875	-0.0	-0.0	-0.0	-0.0	-0.0	-0.0	252856.578125	-11761.240234375	-828.8154296875
0.1635	-0.0	-0.0	-0.0	-0.0	-0.0	-0.0	1.4092531204223633	7.699099063873291	-872.7489624023438	-0.0	-0.0	-0.0	-0.0	-0.0	-0.0	251475.078125	-11748.6826171875	-820.8676147460938
0.164	-0.0	-0.0	-0.0	-0.0	-0.0	-0.0	1.4142378568649292	8.385448455810547	-869.2000122070312	-0.0	-0.0	-0.0	-0.0	-0.0	-0.0	250118.375	-11397.005859375	-857.1213989257812
0.1645	-0.0	-0.0	-0.0	-0.0	-0.0	-0.0	1.5656342506408691	8.468541145324707	-867.6621704101562	-0.0	-0.0	-0.0	-0.0	-0.0	-0.0	249060.53125	-11502.0029296875	-743.5462646484375
0.165	-0.0	-0.0	-0.0	-0.0	-0.0	-0.0	1.7585095167160034	8.213916778564453	-863.1646118164062	-0.0	-0.0	-0.0	-0.0	-0.0	-0.0	247355.15625	-11543.78515625	-424.2141723632813
0.1655	-0.0	-0.0	-0.0	-0.0	-0.0	-0.0	2.556681632995605	7.89235258102417	-859.5903930664062	-0.0	-0.0	-0.0	-0.0	-0.0	-0.0	246010.9375	-11510.9072265625	-94.04781341552734
0.166	-0.0	-0.0	-0.0	-0.0	-0.0	-0.0	2.599373579025269	7.788294315338135	-855.7706298828125	-0.0	-0.0	-0.0	-0.0	-0.0	-0.0	244635.5	-11502.5244140625	2.0371861457824707
0.1665	-0.0	-0.0	-0.0	-0.0	-0.0	-0.0	3.3926541805267334	7.590277671813965	-851.8234252929688	-0.0	-0.0	-0.0	-0.0	-0.0	-0.0	242885.28125	-11572.4189453125	201.13262939453125
0.167	-0.0	-0.0	-0.0	-0.0	-0.0	-0.0	3.287785053253174	6.822617530822754	-848.8092041015625	-0.0	-0.0	-0.0	-0.0	-0.0	-0.0	241845.09375	-11538.701171875	274.7165222167969
0.1675	-0.0	-0.0	-0.0	-0.0	-0.0	-0.0	3.276771306991577	5.856748580932617	-845.3612670898438	-0.0	-0.0	-0.0	-0.0	-0.0	-0.0	240943.015625	-11540.267578125	239.28196716308597
0.168	-0.0	-0.0	-0.0	-0.0	-0.0	-0.0	2.75003433227539	4.615039825439453	-843.2232055664062	-0.0	-0.0	-0.0	-0.0	-0.0	-0.0	239409.28125	-11446.3916015625	244.18731689453125
0.1685	-0.0	-0.0	-0.0	-0.0	-0.0	-0.0	1.8629264831542969	3.4501819610595703	-842.458251953125	-0.0	-0.0	-0.0	-0.0	-0.0	-0.0	238210.609375	-11582.32421875	279.91168212890625
0.169	-0.0	-0.0	-0.0	-0.0	-0.0	-0.0	1.4478868246078491	2.219397783279419	-842.4803466796875	-0.0	-0.0	-0.0	-0.0	-0.0	-0.0	237993.4375	-11340.392578125	205.4277801513672
0.1695	-0.0	-0.0	-0.0	-0.0	-0.0	-0.0	1.5427502393722534	1.4899636507034302	-841.1289672851562	-0.0	-0.0	-0.0	-0.0	-0.0	-0.0	237768.5625	-11571.96875	11.13589096069336
0.17	-0.0	-0.0	-0.0	-0.0	-0.0	-0.0	1.9399974346160889	1.0366826057434082	-840.4995727539062	-0.0	-0.0	-0.0	-0.0	-0.0	-0.0	237599.359375	-11876.32421875	238.95535278320312
0.1705	-0.0	-0.0	-0.0	-0.0	-0.0	-0.0	2.0344696044921875	-0.0707633793354034	-843.1317749023438	-0.0	-0.0	-0.0	-0.0	-0.0	-0.0	237891.46875	-11594.7978515625	268.4052734375
0.171	-0.0	-0.0	-0.0	-0.0	-0.0	-0.0	1.6914584636688232	0.1001765131950378	-845.7835083007812	-0.0	-0.0	-0.0	-0.0	-0.0	-0.0	237777.875	-11337.7978515625	155.52102661132812
0.1715	-0.0	-0.0	-0.0	-0.0	-0.0	-0.0	1.9576330184936523	-0.0405656099319458	-845.5508422851562	-0.0	-0.0	-0.0	-0.0	-0.0	-0.0	237662.28125	-11633.7412109375	294.0124816894531
0.17200000000000001	-0.0	-0.0	-0.0	-0.0	-0.0	-0.0	2.774317502975464	0.706573486328125	-847.6206665039062	-0.0	-0.0	-0.0	-0.0	-0.0	-0.0	237890.90625	-11664.984375	462.5671081542969
0.17250000000000001	-0.0	-0.0	-0.0	-0.0	-0.0	-0.0	4.404891014099121	1.041551947593689	-844.64599609375	-0.0	-0.0	-0.0	-0.0	-0.0	-0.0	237394.40625	-12269.546875	685.6702270507812
0.17300000000000001	-0.0	-0.0	-0.0	-0.0	-0.0	-0.0	5.469212055206299	1.4254354238510132	-841.300537109375	-0.0	-0.0	-0.0	-0.0	-0.0	-0.0	236940.6875	-12448.1982421875	1065.96630859375
0.17350000000000002	-0.0	-0.0	-0.0	-0.0	-0.0	-0.0	7.008152008056641	1.7602148056030271	-841.1553955078125	-0.0	-0.0	-0.0	-0.0	-0.0	-0.0	236091.9375	-12154.927734375	1300.20556640625
0.17400000000000002	-0.0	-0.0	-0.0	-0.0	-0.0	-0.0	7.717838287353516	1.1481819152832031	-837.6642456054688	-0.0	-0.0	-0.0	-0.0	-0.0	-0.0	235473.265625	-11701.2294921875	1450.9075927734375
